<svg width="113" height="16" viewBox="0 0 113 16" fill="none" xmlns="http://www.w3.org/2000/svg">
<path d="M3.96387 15H1.56445V7.97754H0.395508V5.58691H1.56445V5.13867C1.56445 4.55859 1.67285 4.01367 1.88965 3.50391C2.1123 2.99414 2.41406 2.55176 2.79492 2.17676C3.18164 1.7959 3.62988 1.49707 4.13965 1.28027C4.64941 1.05762 5.19434 0.946289 5.77441 0.946289H7.57617V3.33691H5.77441C5.5166 3.33691 5.27637 3.38379 5.05371 3.47754C4.83691 3.56543 4.64648 3.69141 4.48242 3.85547C4.32422 4.01367 4.19824 4.2041 4.10449 4.42676C4.01074 4.64355 3.96387 4.88086 3.96387 5.13867V5.58691H6.9082V7.97754H3.96387V15ZM16.9893 15H16.4092L15.4775 13.708C15.249 13.9131 15.0059 14.1064 14.748 14.2881C14.4961 14.4639 14.2295 14.6191 13.9482 14.7539C13.667 14.8828 13.377 14.9854 13.0781 15.0615C12.7852 15.1377 12.4863 15.1758 12.1816 15.1758C11.5195 15.1758 10.8955 15.0645 10.3096 14.8418C9.72949 14.6191 9.21973 14.2969 8.78027 13.875C8.34668 13.4473 8.00391 12.9258 7.75195 12.3105C7.5 11.6953 7.37402 10.9951 7.37402 10.21C7.37402 9.47754 7.5 8.80664 7.75195 8.19727C8.00391 7.58203 8.34668 7.05469 8.78027 6.61523C9.21973 6.17578 9.72949 5.83594 10.3096 5.5957C10.8955 5.34961 11.5195 5.22656 12.1816 5.22656C12.4863 5.22656 12.7881 5.26465 13.0869 5.34082C13.3857 5.41699 13.6758 5.52246 13.957 5.65723C14.2383 5.79199 14.5049 5.9502 14.7568 6.13184C15.0146 6.31348 15.2549 6.50977 15.4775 6.7207L16.4092 5.60449H16.9893V15ZM14.5723 10.21C14.5723 9.88184 14.5078 9.56543 14.3789 9.26074C14.2559 8.9502 14.0859 8.67773 13.8691 8.44336C13.6523 8.20312 13.3975 8.0127 13.1045 7.87207C12.8174 7.72559 12.5098 7.65234 12.1816 7.65234C11.8535 7.65234 11.543 7.70801 11.25 7.81934C10.9629 7.93066 10.7109 8.09473 10.4941 8.31152C10.2832 8.52832 10.1162 8.79785 9.99316 9.12012C9.87012 9.43652 9.80859 9.7998 9.80859 10.21C9.80859 10.6201 9.87012 10.9863 9.99316 11.3086C10.1162 11.625 10.2832 11.8916 10.4941 12.1084C10.7109 12.3252 10.9629 12.4893 11.25 12.6006C11.543 12.7119 11.8535 12.7676 12.1816 12.7676C12.5098 12.7676 12.8174 12.6973 13.1045 12.5566C13.3975 12.4102 13.6523 12.2197 13.8691 11.9854C14.0859 11.7451 14.2559 11.4727 14.3789 11.168C14.5078 10.8574 14.5723 10.5381 14.5723 10.21ZM23.9941 15H18.5098V12.6094H23.9941C24.1582 12.6094 24.2988 12.5508 24.416 12.4336C24.5332 12.3164 24.5918 12.1758 24.5918 12.0117C24.5918 11.8418 24.5332 11.7305 24.416 11.6777C24.2988 11.625 24.1582 11.5986 23.9941 11.5986H21.498C21.082 11.5986 20.6924 11.5195 20.3291 11.3613C19.9658 11.2031 19.6494 10.9893 19.3799 10.7197C19.1104 10.4443 18.8965 10.125 18.7383 9.76172C18.5859 9.39844 18.5098 9.00879 18.5098 8.59277C18.5098 8.17676 18.5859 7.78711 18.7383 7.42383C18.8965 7.06055 19.1104 6.74414 19.3799 6.47461C19.6494 6.20508 19.9658 5.99414 20.3291 5.8418C20.6924 5.68359 21.082 5.60449 21.498 5.60449H26.3584V7.99512H21.498C21.334 7.99512 21.1934 8.05371 21.0762 8.1709C20.959 8.28809 20.9004 8.42871 20.9004 8.59277C20.9004 8.7627 20.959 8.90918 21.0762 9.03223C21.1934 9.14941 21.334 9.20801 21.498 9.20801H23.9941C24.4043 9.20801 24.791 9.27832 25.1543 9.41895C25.5176 9.55371 25.834 9.74414 26.1035 9.99023C26.373 10.2363 26.5869 10.5322 26.7451 10.8779C26.9033 11.2236 26.9824 11.6016 26.9824 12.0117C26.9824 12.4277 26.9033 12.8174 26.7451 13.1807C26.5869 13.5381 26.373 13.8545 26.1035 14.1299C25.834 14.3994 25.5176 14.6133 25.1543 14.7715C24.791 14.9238 24.4043 15 23.9941 15ZM30.665 15H28.2656V1.84277H30.665V6C30.9521 5.7832 31.248 5.63086 31.5527 5.54297C31.8574 5.44922 32.168 5.40234 32.4844 5.40234C33.0645 5.40234 33.6094 5.51367 34.1191 5.73633C34.6289 5.95312 35.0713 6.25488 35.4463 6.6416C35.8271 7.02246 36.126 7.4707 36.3428 7.98633C36.5654 8.49609 36.6768 9.04102 36.6768 9.62109V15H34.2598V9.62109H34.2773C34.2773 9.375 34.2305 9.14355 34.1367 8.92676C34.043 8.7041 33.9141 8.51074 33.75 8.34668C33.5859 8.18262 33.3955 8.05371 33.1787 7.95996C32.9619 7.86621 32.7305 7.81934 32.4844 7.81934C32.2324 7.81934 31.9951 7.86621 31.7725 7.95996C31.5498 8.05371 31.3564 8.18262 31.1924 8.34668C31.0283 8.51074 30.8994 8.7041 30.8057 8.92676C30.7119 9.14355 30.665 9.375 30.665 9.62109V15ZM41.2207 3.0293C41.2207 3.25195 41.1768 3.45996 41.0889 3.65332C41.0068 3.84668 40.8926 4.0166 40.7461 4.16309C40.5996 4.30371 40.4268 4.41797 40.2275 4.50586C40.0342 4.58789 39.8262 4.62891 39.6035 4.62891C39.3809 4.62891 39.1699 4.58789 38.9707 4.50586C38.7773 4.41797 38.6074 4.30371 38.4609 4.16309C38.3203 4.0166 38.2061 3.84668 38.1182 3.65332C38.0361 3.45996 37.9951 3.25195 37.9951 3.0293C37.9951 2.8125 38.0361 2.60742 38.1182 2.41406C38.2061 2.21484 38.3203 2.04492 38.4609 1.9043C38.6074 1.75781 38.7773 1.64355 38.9707 1.56152C39.1699 1.47363 39.3809 1.42969 39.6035 1.42969C39.8262 1.42969 40.0342 1.47363 40.2275 1.56152C40.4268 1.64355 40.5996 1.75781 40.7461 1.9043C40.8926 2.04492 41.0068 2.21484 41.0889 2.41406C41.1768 2.60742 41.2207 2.8125 41.2207 3.0293ZM40.8076 15H38.3906V5.58691H40.8076V15ZM51.7412 10.21C51.7412 10.9131 51.6152 11.5693 51.3633 12.1787C51.1113 12.7822 50.7686 13.3066 50.335 13.752C49.9014 14.1914 49.3916 14.54 48.8057 14.7979C48.2256 15.0498 47.6016 15.1758 46.9336 15.1758C46.2715 15.1758 45.6475 15.0498 45.0615 14.7979C44.4814 14.54 43.9717 14.1914 43.5322 13.752C43.0986 13.3066 42.7559 12.7822 42.5039 12.1787C42.252 11.5693 42.126 10.9131 42.126 10.21C42.126 9.49512 42.252 8.83301 42.5039 8.22363C42.7559 7.61426 43.0986 7.08984 43.5322 6.65039C43.9717 6.20508 44.4814 5.85645 45.0615 5.60449C45.6475 5.35254 46.2715 5.22656 46.9336 5.22656C47.6016 5.22656 48.2256 5.34668 48.8057 5.58691C49.3916 5.82129 49.9014 6.1582 50.335 6.59766C50.7686 7.03125 51.1113 7.55566 51.3633 8.1709C51.6152 8.78027 51.7412 9.45996 51.7412 10.21ZM49.3242 10.21C49.3242 9.82324 49.2598 9.47461 49.1309 9.16406C49.0078 8.84766 48.8379 8.57812 48.6211 8.35547C48.4043 8.12695 48.1494 7.9541 47.8564 7.83691C47.5693 7.71387 47.2617 7.65234 46.9336 7.65234C46.6055 7.65234 46.2949 7.71387 46.002 7.83691C45.7148 7.9541 45.4629 8.12695 45.2461 8.35547C45.0352 8.57812 44.8682 8.84766 44.7451 9.16406C44.6221 9.47461 44.5605 9.82324 44.5605 10.21C44.5605 10.5732 44.6221 10.9102 44.7451 11.2207C44.8682 11.5312 45.0352 11.8008 45.2461 12.0293C45.4629 12.2578 45.7148 12.4395 46.002 12.5742C46.2949 12.7031 46.6055 12.7676 46.9336 12.7676C47.2617 12.7676 47.5693 12.7061 47.8564 12.583C48.1494 12.46 48.4043 12.2871 48.6211 12.0645C48.8379 11.8418 49.0078 11.5723 49.1309 11.2559C49.2598 10.9395 49.3242 10.5908 49.3242 10.21ZM55.4678 15H53.0684V5.58691H53.6484L54.4395 6.50098C54.8262 6.14941 55.2627 5.87988 55.749 5.69238C56.2412 5.49902 56.7539 5.40234 57.2871 5.40234C57.8613 5.40234 58.4033 5.51367 58.9131 5.73633C59.4229 5.95312 59.8682 6.25488 60.249 6.6416C60.6299 7.02246 60.9287 7.4707 61.1455 7.98633C61.3682 8.49609 61.4795 9.04102 61.4795 9.62109V15H59.0801V9.62109C59.0801 9.375 59.0332 9.14355 58.9395 8.92676C58.8457 8.7041 58.7168 8.51074 58.5527 8.34668C58.3887 8.18262 58.1982 8.05371 57.9814 7.95996C57.7646 7.86621 57.5332 7.81934 57.2871 7.81934C57.0352 7.81934 56.7979 7.86621 56.5752 7.95996C56.3525 8.05371 56.1592 8.18262 55.9951 8.34668C55.8311 8.51074 55.7021 8.7041 55.6084 8.92676C55.5146 9.14355 55.4678 9.375 55.4678 9.62109V15Z" fill="#828282"/>
<path d="M75.0762 11.5986C75.0762 12.0908 74.9824 12.5566 74.7949 12.9961C74.6074 13.4297 74.3496 13.8076 74.0215 14.1299C73.6992 14.4521 73.3184 14.707 72.8789 14.8945C72.4453 15.082 71.9795 15.1758 71.4814 15.1758C71.0361 15.1758 70.6084 15.0996 70.1982 14.9473C69.7881 14.7891 69.416 14.5605 69.082 14.2617C68.7539 14.5605 68.3848 14.7891 67.9746 14.9473C67.5703 15.0996 67.1426 15.1758 66.6914 15.1758C66.1934 15.1758 65.7275 15.082 65.2939 14.8945C64.8604 14.707 64.4795 14.4521 64.1514 14.1299C63.8291 13.8076 63.5742 13.4297 63.3867 12.9961C63.1992 12.5566 63.1055 12.0908 63.1055 11.5986V5.60449H65.5049V11.5986C65.5049 11.7627 65.5342 11.918 65.5928 12.0645C65.6572 12.2051 65.7422 12.3311 65.8477 12.4424C65.959 12.5479 66.085 12.6328 66.2256 12.6973C66.3721 12.7559 66.5273 12.7852 66.6914 12.7852C66.8555 12.7852 67.0107 12.7559 67.1572 12.6973C67.3037 12.6328 67.4326 12.5479 67.5439 12.4424C67.6553 12.3311 67.7402 12.2051 67.7988 12.0645C67.8633 11.918 67.8955 11.7627 67.8955 11.5986V5.60449H70.2861V11.5986C70.2861 11.7627 70.3184 11.918 70.3828 12.0645C70.4473 12.2051 70.5322 12.3311 70.6377 12.4424C70.749 12.5479 70.875 12.6328 71.0156 12.6973C71.1621 12.7559 71.3174 12.7852 71.4814 12.7852C71.6455 12.7852 71.8008 12.7559 71.9473 12.6973C72.0938 12.6328 72.2197 12.5479 72.3252 12.4424C72.4365 12.3311 72.5244 12.2051 72.5889 12.0645C72.6533 11.918 72.6855 11.7627 72.6855 11.5986V5.60449H75.0762V11.5986ZM85.9307 15H85.3506L84.4189 13.708C84.1904 13.9131 83.9473 14.1064 83.6895 14.2881C83.4375 14.4639 83.1709 14.6191 82.8896 14.7539C82.6084 14.8828 82.3184 14.9854 82.0195 15.0615C81.7266 15.1377 81.4277 15.1758 81.123 15.1758C80.4609 15.1758 79.8369 15.0645 79.251 14.8418C78.6709 14.6191 78.1611 14.2969 77.7217 13.875C77.2881 13.4473 76.9453 12.9258 76.6934 12.3105C76.4414 11.6953 76.3154 10.9951 76.3154 10.21C76.3154 9.47754 76.4414 8.80664 76.6934 8.19727C76.9453 7.58203 77.2881 7.05469 77.7217 6.61523C78.1611 6.17578 78.6709 5.83594 79.251 5.5957C79.8369 5.34961 80.4609 5.22656 81.123 5.22656C81.4277 5.22656 81.7295 5.26465 82.0283 5.34082C82.3271 5.41699 82.6172 5.52246 82.8984 5.65723C83.1797 5.79199 83.4463 5.9502 83.6982 6.13184C83.9561 6.31348 84.1963 6.50977 84.4189 6.7207L85.3506 5.60449H85.9307V15ZM83.5137 10.21C83.5137 9.88184 83.4492 9.56543 83.3203 9.26074C83.1973 8.9502 83.0273 8.67773 82.8105 8.44336C82.5938 8.20312 82.3389 8.0127 82.0459 7.87207C81.7588 7.72559 81.4512 7.65234 81.123 7.65234C80.7949 7.65234 80.4844 7.70801 80.1914 7.81934C79.9043 7.93066 79.6523 8.09473 79.4355 8.31152C79.2246 8.52832 79.0576 8.79785 78.9346 9.12012C78.8115 9.43652 78.75 9.7998 78.75 10.21C78.75 10.6201 78.8115 10.9863 78.9346 11.3086C79.0576 11.625 79.2246 11.8916 79.4355 12.1084C79.6523 12.3252 79.9043 12.4893 80.1914 12.6006C80.4844 12.7119 80.7949 12.7676 81.123 12.7676C81.4512 12.7676 81.7588 12.6973 82.0459 12.5566C82.3389 12.4102 82.5938 12.2197 82.8105 11.9854C83.0273 11.7451 83.1973 11.4727 83.3203 11.168C83.4492 10.8574 83.5137 10.5381 83.5137 10.21ZM90.167 15H87.7676V5.58691H88.3477L89.1387 6.70312C89.5254 6.35156 89.9648 6.08203 90.457 5.89453C90.9492 5.70117 91.459 5.60449 91.9863 5.60449H94.1045V7.99512H91.9863C91.7344 7.99512 91.4971 8.04199 91.2744 8.13574C91.0518 8.22949 90.8584 8.3584 90.6943 8.52246C90.5303 8.68652 90.4014 8.87988 90.3076 9.10254C90.2139 9.3252 90.167 9.5625 90.167 9.81445V15ZM98.7891 12.6973C98.8828 12.7266 98.9766 12.7471 99.0703 12.7588C99.1641 12.7646 99.2578 12.7676 99.3516 12.7676C99.5859 12.7676 99.8115 12.7354 100.028 12.6709C100.245 12.6064 100.447 12.5156 100.635 12.3984C100.828 12.2754 100.998 12.1289 101.145 11.959C101.297 11.7832 101.42 11.5898 101.514 11.3789L103.271 13.1455C103.049 13.4619 102.791 13.7461 102.498 13.998C102.211 14.25 101.897 14.4639 101.558 14.6396C101.224 14.8154 100.869 14.9473 100.494 15.0352C100.125 15.1289 99.7441 15.1758 99.3516 15.1758C98.6895 15.1758 98.0654 15.0527 97.4795 14.8066C96.8994 14.5605 96.3896 14.2178 95.9502 13.7783C95.5166 13.3389 95.1738 12.8174 94.9219 12.2139C94.6699 11.6045 94.5439 10.9365 94.5439 10.21C94.5439 9.46582 94.6699 8.78613 94.9219 8.1709C95.1738 7.55566 95.5166 7.03125 95.9502 6.59766C96.3896 6.16406 96.8994 5.82715 97.4795 5.58691C98.0654 5.34668 98.6895 5.22656 99.3516 5.22656C99.7441 5.22656 100.128 5.27344 100.503 5.36719C100.878 5.46094 101.232 5.5957 101.566 5.77148C101.906 5.94727 102.223 6.16406 102.516 6.42188C102.809 6.67383 103.066 6.95801 103.289 7.27441L98.7891 12.6973ZM100.02 7.74902C99.9082 7.70801 99.7969 7.68164 99.6855 7.66992C99.5801 7.6582 99.4688 7.65234 99.3516 7.65234C99.0234 7.65234 98.7129 7.71387 98.4199 7.83691C98.1328 7.9541 97.8809 8.12402 97.6641 8.34668C97.4531 8.56934 97.2861 8.83887 97.1631 9.15527C97.04 9.46582 96.9785 9.81738 96.9785 10.21C96.9785 10.2979 96.9814 10.3975 96.9873 10.5088C96.999 10.6201 97.0137 10.7344 97.0312 10.8516C97.0547 10.9629 97.0811 11.0713 97.1104 11.1768C97.1396 11.2822 97.1777 11.376 97.2246 11.458L100.02 7.74902ZM109.67 15H104.186V12.6094H109.67C109.834 12.6094 109.975 12.5508 110.092 12.4336C110.209 12.3164 110.268 12.1758 110.268 12.0117C110.268 11.8418 110.209 11.7305 110.092 11.6777C109.975 11.625 109.834 11.5986 109.67 11.5986H107.174C106.758 11.5986 106.368 11.5195 106.005 11.3613C105.642 11.2031 105.325 10.9893 105.056 10.7197C104.786 10.4443 104.572 10.125 104.414 9.76172C104.262 9.39844 104.186 9.00879 104.186 8.59277C104.186 8.17676 104.262 7.78711 104.414 7.42383C104.572 7.06055 104.786 6.74414 105.056 6.47461C105.325 6.20508 105.642 5.99414 106.005 5.8418C106.368 5.68359 106.758 5.60449 107.174 5.60449H112.034V7.99512H107.174C107.01 7.99512 106.869 8.05371 106.752 8.1709C106.635 8.28809 106.576 8.42871 106.576 8.59277C106.576 8.7627 106.635 8.90918 106.752 9.03223C106.869 9.14941 107.01 9.20801 107.174 9.20801H109.67C110.08 9.20801 110.467 9.27832 110.83 9.41895C111.193 9.55371 111.51 9.74414 111.779 9.99023C112.049 10.2363 112.263 10.5322 112.421 10.8779C112.579 11.2236 112.658 11.6016 112.658 12.0117C112.658 12.4277 112.579 12.8174 112.421 13.1807C112.263 13.5381 112.049 13.8545 111.779 14.1299C111.51 14.3994 111.193 14.6133 110.83 14.7715C110.467 14.9238 110.08 15 109.67 15Z" fill="black"/>
</svg>
