<svg width="76" height="11" viewBox="0 0 76 11" fill="none" xmlns="http://www.w3.org/2000/svg">
<path d="M2.64258 10H1.04297V5.31836H0.263672V3.72461H1.04297V3.42578C1.04297 3.03906 1.11523 2.67578 1.25977 2.33594C1.4082 1.99609 1.60938 1.70117 1.86328 1.45117C2.12109 1.19727 2.41992 0.998047 2.75977 0.853516C3.09961 0.705078 3.46289 0.630859 3.84961 0.630859H5.05078V2.22461H3.84961C3.67773 2.22461 3.51758 2.25586 3.36914 2.31836C3.22461 2.37695 3.09766 2.46094 2.98828 2.57031C2.88281 2.67578 2.79883 2.80273 2.73633 2.95117C2.67383 3.0957 2.64258 3.25391 2.64258 3.42578V3.72461H4.60547V5.31836H2.64258V10ZM11.3262 10H10.9395L10.3184 9.13867C10.166 9.27539 10.0039 9.4043 9.83203 9.52539C9.66406 9.64258 9.48633 9.74609 9.29883 9.83594C9.11133 9.92188 8.91797 9.99023 8.71875 10.041C8.52344 10.0918 8.32422 10.1172 8.12109 10.1172C7.67969 10.1172 7.26367 10.043 6.87305 9.89453C6.48633 9.74609 6.14648 9.53125 5.85352 9.25C5.56445 8.96484 5.33594 8.61719 5.16797 8.20703C5 7.79688 4.91602 7.33008 4.91602 6.80664C4.91602 6.31836 5 5.87109 5.16797 5.46484C5.33594 5.05469 5.56445 4.70312 5.85352 4.41016C6.14648 4.11719 6.48633 3.89062 6.87305 3.73047C7.26367 3.56641 7.67969 3.48438 8.12109 3.48438C8.32422 3.48438 8.52539 3.50977 8.72461 3.56055C8.92383 3.61133 9.11719 3.68164 9.30469 3.77148C9.49219 3.86133 9.66992 3.9668 9.83789 4.08789C10.0098 4.20898 10.1699 4.33984 10.3184 4.48047L10.9395 3.73633H11.3262V10ZM9.71484 6.80664C9.71484 6.58789 9.67188 6.37695 9.58594 6.17383C9.50391 5.9668 9.39062 5.78516 9.24609 5.62891C9.10156 5.46875 8.93164 5.3418 8.73633 5.24805C8.54492 5.15039 8.33984 5.10156 8.12109 5.10156C7.90234 5.10156 7.69531 5.13867 7.5 5.21289C7.30859 5.28711 7.14062 5.39648 6.99609 5.54102C6.85547 5.68555 6.74414 5.86523 6.66211 6.08008C6.58008 6.29102 6.53906 6.5332 6.53906 6.80664C6.53906 7.08008 6.58008 7.32422 6.66211 7.53906C6.74414 7.75 6.85547 7.92773 6.99609 8.07227C7.14062 8.2168 7.30859 8.32617 7.5 8.40039C7.69531 8.47461 7.90234 8.51172 8.12109 8.51172C8.33984 8.51172 8.54492 8.46484 8.73633 8.37109C8.93164 8.27344 9.10156 8.14648 9.24609 7.99023C9.39062 7.83008 9.50391 7.64844 9.58594 7.44531C9.67188 7.23828 9.71484 7.02539 9.71484 6.80664ZM15.9961 10H12.3398V8.40625H15.9961C16.1055 8.40625 16.1992 8.36719 16.2773 8.28906C16.3555 8.21094 16.3945 8.11719 16.3945 8.00781C16.3945 7.89453 16.3555 7.82031 16.2773 7.78516C16.1992 7.75 16.1055 7.73242 15.9961 7.73242H14.332C14.0547 7.73242 13.7949 7.67969 13.5527 7.57422C13.3105 7.46875 13.0996 7.32617 12.9199 7.14648C12.7402 6.96289 12.5977 6.75 12.4922 6.50781C12.3906 6.26562 12.3398 6.00586 12.3398 5.72852C12.3398 5.45117 12.3906 5.19141 12.4922 4.94922C12.5977 4.70703 12.7402 4.49609 12.9199 4.31641C13.0996 4.13672 13.3105 3.99609 13.5527 3.89453C13.7949 3.78906 14.0547 3.73633 14.332 3.73633H17.5723V5.33008H14.332C14.2227 5.33008 14.1289 5.36914 14.0508 5.44727C13.9727 5.52539 13.9336 5.61914 13.9336 5.72852C13.9336 5.8418 13.9727 5.93945 14.0508 6.02148C14.1289 6.09961 14.2227 6.13867 14.332 6.13867H15.9961C16.2695 6.13867 16.5273 6.18555 16.7695 6.2793C17.0117 6.36914 17.2227 6.49609 17.4023 6.66016C17.582 6.82422 17.7246 7.02148 17.8301 7.25195C17.9355 7.48242 17.9883 7.73438 17.9883 8.00781C17.9883 8.28516 17.9355 8.54492 17.8301 8.78711C17.7246 9.02539 17.582 9.23633 17.4023 9.41992C17.2227 9.59961 17.0117 9.74219 16.7695 9.84766C16.5273 9.94922 16.2695 10 15.9961 10ZM20.4434 10H18.8438V1.22852H20.4434V4C20.6348 3.85547 20.832 3.75391 21.0352 3.69531C21.2383 3.63281 21.4453 3.60156 21.6562 3.60156C22.043 3.60156 22.4062 3.67578 22.7461 3.82422C23.0859 3.96875 23.3809 4.16992 23.6309 4.42773C23.8848 4.68164 24.084 4.98047 24.2285 5.32422C24.377 5.66406 24.4512 6.02734 24.4512 6.41406V10H22.8398V6.41406H22.8516C22.8516 6.25 22.8203 6.0957 22.7578 5.95117C22.6953 5.80273 22.6094 5.67383 22.5 5.56445C22.3906 5.45508 22.2637 5.36914 22.1191 5.30664C21.9746 5.24414 21.8203 5.21289 21.6562 5.21289C21.4883 5.21289 21.3301 5.24414 21.1816 5.30664C21.0332 5.36914 20.9043 5.45508 20.7949 5.56445C20.6855 5.67383 20.5996 5.80273 20.5371 5.95117C20.4746 6.0957 20.4434 6.25 20.4434 6.41406V10ZM27.4805 2.01953C27.4805 2.16797 27.4512 2.30664 27.3926 2.43555C27.3379 2.56445 27.2617 2.67773 27.1641 2.77539C27.0664 2.86914 26.9512 2.94531 26.8184 3.00391C26.6895 3.05859 26.5508 3.08594 26.4023 3.08594C26.2539 3.08594 26.1133 3.05859 25.9805 3.00391C25.8516 2.94531 25.7383 2.86914 25.6406 2.77539C25.5469 2.67773 25.4707 2.56445 25.4121 2.43555C25.3574 2.30664 25.3301 2.16797 25.3301 2.01953C25.3301 1.875 25.3574 1.73828 25.4121 1.60938C25.4707 1.47656 25.5469 1.36328 25.6406 1.26953C25.7383 1.17187 25.8516 1.0957 25.9805 1.04102C26.1133 0.982422 26.2539 0.953125 26.4023 0.953125C26.5508 0.953125 26.6895 0.982422 26.8184 1.04102C26.9512 1.0957 27.0664 1.17187 27.1641 1.26953C27.2617 1.36328 27.3379 1.47656 27.3926 1.60938C27.4512 1.73828 27.4805 1.875 27.4805 2.01953ZM27.2051 10H25.5938V3.72461H27.2051V10ZM34.4941 6.80664C34.4941 7.27539 34.4102 7.71289 34.2422 8.11914C34.0742 8.52148 33.8457 8.87109 33.5566 9.16797C33.2676 9.46094 32.9277 9.69336 32.5371 9.86523C32.1504 10.0332 31.7344 10.1172 31.2891 10.1172C30.8477 10.1172 30.4316 10.0332 30.041 9.86523C29.6543 9.69336 29.3145 9.46094 29.0215 9.16797C28.7324 8.87109 28.5039 8.52148 28.3359 8.11914C28.168 7.71289 28.084 7.27539 28.084 6.80664C28.084 6.33008 28.168 5.88867 28.3359 5.48242C28.5039 5.07617 28.7324 4.72656 29.0215 4.43359C29.3145 4.13672 29.6543 3.9043 30.041 3.73633C30.4316 3.56836 30.8477 3.48438 31.2891 3.48438C31.7344 3.48438 32.1504 3.56445 32.5371 3.72461C32.9277 3.88086 33.2676 4.10547 33.5566 4.39844C33.8457 4.6875 34.0742 5.03711 34.2422 5.44727C34.4102 5.85352 34.4941 6.30664 34.4941 6.80664ZM32.8828 6.80664C32.8828 6.54883 32.8398 6.31641 32.7539 6.10938C32.6719 5.89844 32.5586 5.71875 32.4141 5.57031C32.2695 5.41797 32.0996 5.30273 31.9043 5.22461C31.7129 5.14258 31.5078 5.10156 31.2891 5.10156C31.0703 5.10156 30.8633 5.14258 30.668 5.22461C30.4766 5.30273 30.3086 5.41797 30.1641 5.57031C30.0234 5.71875 29.9121 5.89844 29.8301 6.10938C29.748 6.31641 29.707 6.54883 29.707 6.80664C29.707 7.04883 29.748 7.27344 29.8301 7.48047C29.9121 7.6875 30.0234 7.86719 30.1641 8.01953C30.3086 8.17188 30.4766 8.29297 30.668 8.38281C30.8633 8.46875 31.0703 8.51172 31.2891 8.51172C31.5078 8.51172 31.7129 8.4707 31.9043 8.38867C32.0996 8.30664 32.2695 8.19141 32.4141 8.04297C32.5586 7.89453 32.6719 7.71484 32.7539 7.50391C32.8398 7.29297 32.8828 7.06055 32.8828 6.80664ZM36.9785 10H35.3789V3.72461H35.7656L36.293 4.33398C36.5508 4.09961 36.8418 3.91992 37.166 3.79492C37.4941 3.66602 37.8359 3.60156 38.1914 3.60156C38.5742 3.60156 38.9355 3.67578 39.2754 3.82422C39.6152 3.96875 39.9121 4.16992 40.166 4.42773C40.4199 4.68164 40.6191 4.98047 40.7637 5.32422C40.9121 5.66406 40.9863 6.02734 40.9863 6.41406V10H39.3867V6.41406C39.3867 6.25 39.3555 6.0957 39.293 5.95117C39.2305 5.80273 39.1445 5.67383 39.0352 5.56445C38.9258 5.45508 38.7988 5.36914 38.6543 5.30664C38.5098 5.24414 38.3555 5.21289 38.1914 5.21289C38.0234 5.21289 37.8652 5.24414 37.7168 5.30664C37.5684 5.36914 37.4395 5.45508 37.3301 5.56445C37.2207 5.67383 37.1348 5.80273 37.0723 5.95117C37.0098 6.0957 36.9785 6.25 36.9785 6.41406V10Z" fill="#828282"/>
<path d="M50.0508 7.73242C50.0508 8.06055 49.9883 8.37109 49.8633 8.66406C49.7383 8.95312 49.5664 9.20508 49.3477 9.41992C49.1328 9.63477 48.8789 9.80469 48.5859 9.92969C48.2969 10.0547 47.9863 10.1172 47.6543 10.1172C47.3574 10.1172 47.0723 10.0664 46.7988 9.96484C46.5254 9.85938 46.2773 9.70703 46.0547 9.50781C45.8359 9.70703 45.5898 9.85938 45.3164 9.96484C45.0469 10.0664 44.7617 10.1172 44.4609 10.1172C44.1289 10.1172 43.8184 10.0547 43.5293 9.92969C43.2402 9.80469 42.9863 9.63477 42.7676 9.41992C42.5527 9.20508 42.3828 8.95312 42.2578 8.66406C42.1328 8.37109 42.0703 8.06055 42.0703 7.73242V3.73633H43.6699V7.73242C43.6699 7.8418 43.6895 7.94531 43.7285 8.04297C43.7715 8.13672 43.8281 8.2207 43.8984 8.29492C43.9727 8.36523 44.0566 8.42188 44.1504 8.46484C44.248 8.50391 44.3516 8.52344 44.4609 8.52344C44.5703 8.52344 44.6738 8.50391 44.7715 8.46484C44.8691 8.42188 44.9551 8.36523 45.0293 8.29492C45.1035 8.2207 45.1602 8.13672 45.1992 8.04297C45.2422 7.94531 45.2637 7.8418 45.2637 7.73242V3.73633H46.8574V7.73242C46.8574 7.8418 46.8789 7.94531 46.9219 8.04297C46.9648 8.13672 47.0215 8.2207 47.0918 8.29492C47.166 8.36523 47.25 8.42188 47.3438 8.46484C47.4414 8.50391 47.5449 8.52344 47.6543 8.52344C47.7637 8.52344 47.8672 8.50391 47.9648 8.46484C48.0625 8.42188 48.1465 8.36523 48.2168 8.29492C48.291 8.2207 48.3496 8.13672 48.3926 8.04297C48.4355 7.94531 48.457 7.8418 48.457 7.73242V3.73633H50.0508V7.73242ZM57.2871 10H56.9004L56.2793 9.13867C56.127 9.27539 55.9648 9.4043 55.793 9.52539C55.625 9.64258 55.4473 9.74609 55.2598 9.83594C55.0723 9.92188 54.8789 9.99023 54.6797 10.041C54.4844 10.0918 54.2852 10.1172 54.082 10.1172C53.6406 10.1172 53.2246 10.043 52.834 9.89453C52.4473 9.74609 52.1074 9.53125 51.8145 9.25C51.5254 8.96484 51.2969 8.61719 51.1289 8.20703C50.9609 7.79688 50.877 7.33008 50.877 6.80664C50.877 6.31836 50.9609 5.87109 51.1289 5.46484C51.2969 5.05469 51.5254 4.70312 51.8145 4.41016C52.1074 4.11719 52.4473 3.89062 52.834 3.73047C53.2246 3.56641 53.6406 3.48438 54.082 3.48438C54.2852 3.48438 54.4863 3.50977 54.6855 3.56055C54.8848 3.61133 55.0781 3.68164 55.2656 3.77148C55.4531 3.86133 55.6309 3.9668 55.7988 4.08789C55.9707 4.20898 56.1309 4.33984 56.2793 4.48047L56.9004 3.73633H57.2871V10ZM55.6758 6.80664C55.6758 6.58789 55.6328 6.37695 55.5469 6.17383C55.4648 5.9668 55.3516 5.78516 55.207 5.62891C55.0625 5.46875 54.8926 5.3418 54.6973 5.24805C54.5059 5.15039 54.3008 5.10156 54.082 5.10156C53.8633 5.10156 53.6562 5.13867 53.4609 5.21289C53.2695 5.28711 53.1016 5.39648 52.957 5.54102C52.8164 5.68555 52.7051 5.86523 52.623 6.08008C52.541 6.29102 52.5 6.5332 52.5 6.80664C52.5 7.08008 52.541 7.32422 52.623 7.53906C52.7051 7.75 52.8164 7.92773 52.957 8.07227C53.1016 8.2168 53.2695 8.32617 53.4609 8.40039C53.6562 8.47461 53.8633 8.51172 54.082 8.51172C54.3008 8.51172 54.5059 8.46484 54.6973 8.37109C54.8926 8.27344 55.0625 8.14648 55.207 7.99023C55.3516 7.83008 55.4648 7.64844 55.5469 7.44531C55.6328 7.23828 55.6758 7.02539 55.6758 6.80664ZM60.1113 10H58.5117V3.72461H58.8984L59.4258 4.46875C59.6836 4.23438 59.9766 4.05469 60.3047 3.92969C60.6328 3.80078 60.9727 3.73633 61.3242 3.73633H62.7363V5.33008H61.3242C61.1562 5.33008 60.998 5.36133 60.8496 5.42383C60.7012 5.48633 60.5723 5.57227 60.4629 5.68164C60.3535 5.79102 60.2676 5.91992 60.2051 6.06836C60.1426 6.2168 60.1113 6.375 60.1113 6.54297V10ZM65.8594 8.46484C65.9219 8.48438 65.9844 8.49805 66.0469 8.50586C66.1094 8.50977 66.1719 8.51172 66.2344 8.51172C66.3906 8.51172 66.541 8.49023 66.6855 8.44727C66.8301 8.4043 66.9648 8.34375 67.0898 8.26562C67.2188 8.18359 67.332 8.08594 67.4297 7.97266C67.5312 7.85547 67.6133 7.72656 67.6758 7.58594L68.8477 8.76367C68.6992 8.97461 68.5273 9.16406 68.332 9.33203C68.1406 9.5 67.9316 9.64258 67.7051 9.75977C67.4824 9.87695 67.2461 9.96484 66.9961 10.0234C66.75 10.0859 66.4961 10.1172 66.2344 10.1172C65.793 10.1172 65.377 10.0352 64.9863 9.87109C64.5996 9.70703 64.2598 9.47852 63.9668 9.18555C63.6777 8.89258 63.4492 8.54492 63.2812 8.14258C63.1133 7.73633 63.0293 7.29102 63.0293 6.80664C63.0293 6.31055 63.1133 5.85742 63.2812 5.44727C63.4492 5.03711 63.6777 4.6875 63.9668 4.39844C64.2598 4.10938 64.5996 3.88477 64.9863 3.72461C65.377 3.56445 65.793 3.48438 66.2344 3.48438C66.4961 3.48438 66.752 3.51562 67.002 3.57812C67.252 3.64062 67.4883 3.73047 67.7109 3.84766C67.9375 3.96484 68.1484 4.10938 68.3438 4.28125C68.5391 4.44922 68.7109 4.63867 68.8594 4.84961L65.8594 8.46484ZM66.6797 5.16602C66.6055 5.13867 66.5312 5.12109 66.457 5.11328C66.3867 5.10547 66.3125 5.10156 66.2344 5.10156C66.0156 5.10156 65.8086 5.14258 65.6133 5.22461C65.4219 5.30273 65.2539 5.41602 65.1094 5.56445C64.9688 5.71289 64.8574 5.89258 64.7754 6.10352C64.6934 6.31055 64.6523 6.54492 64.6523 6.80664C64.6523 6.86523 64.6543 6.93164 64.6582 7.00586C64.666 7.08008 64.6758 7.15625 64.6875 7.23438C64.7031 7.30859 64.7207 7.38086 64.7402 7.45117C64.7598 7.52148 64.7852 7.58398 64.8164 7.63867L66.6797 5.16602ZM73.1133 10H69.457V8.40625H73.1133C73.2227 8.40625 73.3164 8.36719 73.3945 8.28906C73.4727 8.21094 73.5117 8.11719 73.5117 8.00781C73.5117 7.89453 73.4727 7.82031 73.3945 7.78516C73.3164 7.75 73.2227 7.73242 73.1133 7.73242H71.4492C71.1719 7.73242 70.9121 7.67969 70.6699 7.57422C70.4277 7.46875 70.2168 7.32617 70.0371 7.14648C69.8574 6.96289 69.7148 6.75 69.6094 6.50781C69.5078 6.26562 69.457 6.00586 69.457 5.72852C69.457 5.45117 69.5078 5.19141 69.6094 4.94922C69.7148 4.70703 69.8574 4.49609 70.0371 4.31641C70.2168 4.13672 70.4277 3.99609 70.6699 3.89453C70.9121 3.78906 71.1719 3.73633 71.4492 3.73633H74.6895V5.33008H71.4492C71.3398 5.33008 71.2461 5.36914 71.168 5.44727C71.0898 5.52539 71.0508 5.61914 71.0508 5.72852C71.0508 5.8418 71.0898 5.93945 71.168 6.02148C71.2461 6.09961 71.3398 6.13867 71.4492 6.13867H73.1133C73.3867 6.13867 73.6445 6.18555 73.8867 6.2793C74.1289 6.36914 74.3398 6.49609 74.5195 6.66016C74.6992 6.82422 74.8418 7.02148 74.9473 7.25195C75.0527 7.48242 75.1055 7.73438 75.1055 8.00781C75.1055 8.28516 75.0527 8.54492 74.9473 8.78711C74.8418 9.02539 74.6992 9.23633 74.5195 9.41992C74.3398 9.59961 74.1289 9.74219 73.8867 9.84766C73.6445 9.94922 73.3867 10 73.1133 10Z" fill="black"/>
</svg>
